<svg xmlns="http://www.w3.org/2000/svg" xmlns:xlink="http://www.w3.org/1999/xlink" width="1000" zoomAndPan="magnify" viewBox="0 0 750 749.999995" height="1000" preserveAspectRatio="xMidYMid meet" version="1.0"><defs><g/><clipPath id="e23429c653"><path d="M 157.699219 94.351562 L 450.746094 94.351562 L 450.746094 257.863281 L 157.699219 257.863281 Z M 157.699219 94.351562 " clip-rule="nonzero"/></clipPath><clipPath id="0ae78f7ad2"><path d="M 49.808594 138.777344 L 701.148438 138.777344 L 701.148438 319.71875 L 49.808594 319.71875 Z M 49.808594 138.777344 " clip-rule="nonzero"/></clipPath><clipPath id="0581f74f57"><path d="M 49.808594 225 L 701.148438 225 L 701.148438 332 L 49.808594 332 Z M 49.808594 225 " clip-rule="nonzero"/></clipPath><clipPath id="fbbdb4f7c9"><path d="M 49.808594 213 L 309.207031 213 L 309.207031 322.96875 L 49.808594 322.96875 Z M 49.808594 213 " clip-rule="nonzero"/></clipPath><clipPath id="71687cd2a4"><path d="M 49.808594 257 L 185.605469 257 L 185.605469 314.839844 L 49.808594 314.839844 Z M 49.808594 257 " clip-rule="nonzero"/></clipPath><clipPath id="3b2b5a13e4"><path d="M 525 291 L 648 291 L 648 376.613281 L 525 376.613281 Z M 525 291 " clip-rule="nonzero"/></clipPath><clipPath id="a0210ac21d"><path d="M 49.808594 226 L 701.148438 226 L 701.148438 332 L 49.808594 332 Z M 49.808594 226 " clip-rule="nonzero"/></clipPath></defs><g clip-path="url(#e23429c653)"><path fill="#ee3ec9" d="M 450.746094 240.875 C 450.746094 243.273438 450.6875 245.671875 450.570312 248.066406 C 450.453125 250.460938 450.277344 252.851562 450.042969 255.238281 C 449.804688 257.625 449.511719 260.003906 449.160156 262.375 C 448.808594 264.746094 448.398438 267.109375 447.929688 269.460938 C 447.464844 271.8125 446.9375 274.152344 446.355469 276.476562 C 445.773438 278.804688 445.132812 281.113281 444.4375 283.410156 C 443.742188 285.703125 442.988281 287.980469 442.183594 290.238281 C 441.375 292.496094 440.511719 294.730469 439.59375 296.949219 C 438.675781 299.164062 437.703125 301.355469 436.679688 303.523438 C 435.652344 305.691406 434.574219 307.832031 433.445312 309.945312 C 432.316406 312.0625 431.132812 314.148438 429.902344 316.203125 C 428.667969 318.261719 427.386719 320.285156 426.054688 322.28125 C 424.722656 324.273438 423.339844 326.234375 421.914062 328.160156 C 420.484375 330.085938 419.007812 331.976562 417.488281 333.828125 C 415.964844 335.683594 414.402344 337.496094 412.789062 339.273438 C 411.179688 341.050781 409.527344 342.789062 407.832031 344.484375 C 406.136719 346.179688 404.398438 347.832031 402.621094 349.441406 C 400.847656 351.050781 399.03125 352.617188 397.175781 354.140625 C 395.324219 355.660156 393.433594 357.136719 391.507812 358.5625 C 389.582031 359.992188 387.621094 361.375 385.628906 362.707031 C 383.632812 364.039062 381.609375 365.320312 379.550781 366.554688 C 377.496094 367.785156 375.410156 368.96875 373.292969 370.097656 C 371.179688 371.226562 369.039062 372.304688 366.871094 373.332031 C 364.703125 374.355469 362.511719 375.328125 360.296875 376.246094 C 358.082031 377.164062 355.84375 378.027344 353.585938 378.832031 C 351.328125 379.640625 349.050781 380.394531 346.757812 381.089844 C 344.460938 381.785156 342.152344 382.425781 339.824219 383.007812 C 337.5 383.589844 335.160156 384.117188 332.808594 384.582031 C 330.457031 385.050781 328.09375 385.460938 325.722656 385.8125 C 323.351562 386.164062 320.972656 386.457031 318.585938 386.691406 C 316.199219 386.929688 313.808594 387.105469 311.414062 387.222656 C 309.019531 387.339844 306.621094 387.398438 304.222656 387.398438 C 301.824219 387.398438 299.429688 387.339844 297.035156 387.222656 C 294.640625 387.105469 292.25 386.929688 289.863281 386.695312 C 287.476562 386.457031 285.097656 386.164062 282.722656 385.8125 C 280.351562 385.460938 277.992188 385.050781 275.636719 384.582031 C 273.285156 384.117188 270.949219 383.589844 268.621094 383.007812 C 266.296875 382.425781 263.984375 381.785156 261.691406 381.089844 C 259.394531 380.394531 257.121094 379.640625 254.863281 378.832031 C 252.605469 378.027344 250.367188 377.164062 248.152344 376.246094 C 245.9375 375.328125 243.746094 374.355469 241.578125 373.332031 C 239.410156 372.304688 237.269531 371.226562 235.152344 370.097656 C 233.039062 368.96875 230.953125 367.785156 228.894531 366.554688 C 226.839844 365.320312 224.8125 364.039062 222.820312 362.707031 C 220.828125 361.375 218.867188 359.992188 216.941406 358.5625 C 215.015625 357.136719 213.125 355.660156 211.269531 354.140625 C 209.417969 352.617188 207.601562 351.050781 205.824219 349.441406 C 204.046875 347.832031 202.3125 346.179688 200.617188 344.484375 C 198.921875 342.789062 197.269531 341.050781 195.65625 339.273438 C 194.046875 337.496094 192.480469 335.683594 190.960938 333.828125 C 189.4375 331.976562 187.964844 330.085938 186.535156 328.160156 C 185.105469 326.234375 183.726562 324.273438 182.394531 322.28125 C 181.0625 320.285156 179.78125 318.261719 178.546875 316.203125 C 177.3125 314.148438 176.132812 312.0625 175.003906 309.945312 C 173.871094 307.832031 172.792969 305.691406 171.769531 303.523438 C 170.742188 301.355469 169.773438 299.164062 168.855469 296.949219 C 167.9375 294.730469 167.074219 292.496094 166.265625 290.238281 C 165.457031 287.980469 164.707031 285.703125 164.011719 283.410156 C 163.3125 281.113281 162.675781 278.804688 162.09375 276.476562 C 161.507812 274.152344 160.984375 271.8125 160.515625 269.460938 C 160.046875 267.109375 159.640625 264.746094 159.285156 262.375 C 158.933594 260.003906 158.640625 257.625 158.40625 255.238281 C 158.171875 252.851562 157.996094 250.460938 157.878906 248.066406 C 157.761719 245.671875 157.699219 243.273438 157.699219 240.875 C 157.699219 238.476562 157.761719 236.082031 157.878906 233.6875 C 157.996094 231.292969 158.171875 228.902344 158.40625 226.515625 C 158.640625 224.128906 158.933594 221.75 159.285156 219.375 C 159.640625 217.003906 160.046875 214.644531 160.515625 212.289062 C 160.984375 209.9375 161.507812 207.601562 162.09375 205.273438 C 162.675781 202.949219 163.3125 200.636719 164.011719 198.34375 C 164.707031 196.046875 165.457031 193.773438 166.265625 191.515625 C 167.074219 189.257812 167.9375 187.019531 168.855469 184.804688 C 169.773438 182.589844 170.742188 180.398438 171.769531 178.230469 C 172.792969 176.0625 173.871094 173.921875 175.003906 171.804688 C 176.132812 169.691406 177.3125 167.605469 178.546875 165.546875 C 179.78125 163.492188 181.0625 161.464844 182.394531 159.472656 C 183.726562 157.476562 185.105469 155.519531 186.535156 153.59375 C 187.964844 151.667969 189.4375 149.777344 190.960938 147.921875 C 192.480469 146.070312 194.046875 144.253906 195.65625 142.476562 C 197.269531 140.699219 198.921875 138.964844 200.617188 137.269531 C 202.3125 135.574219 204.046875 133.921875 205.824219 132.308594 C 207.601562 130.699219 209.417969 129.132812 211.269531 127.613281 C 213.125 126.089844 215.015625 124.617188 216.941406 123.1875 C 218.867188 121.757812 220.828125 120.378906 222.820312 119.046875 C 224.8125 117.714844 226.839844 116.433594 228.894531 115.199219 C 230.953125 113.964844 233.039062 112.785156 235.152344 111.652344 C 237.269531 110.523438 239.410156 109.445312 241.578125 108.421875 C 243.746094 107.394531 245.9375 106.425781 248.152344 105.507812 C 250.367188 104.589844 252.605469 103.726562 254.863281 102.917969 C 257.121094 102.109375 259.394531 101.359375 261.691406 100.664062 C 263.984375 99.964844 266.296875 99.328125 268.621094 98.742188 C 270.949219 98.160156 273.285156 97.636719 275.636719 97.167969 C 277.992188 96.699219 280.351562 96.289062 282.722656 95.9375 C 285.097656 95.585938 287.476562 95.292969 289.863281 95.058594 C 292.25 94.824219 294.640625 94.648438 297.035156 94.53125 C 299.429688 94.410156 301.824219 94.351562 304.222656 94.351562 C 306.621094 94.351562 309.019531 94.410156 311.414062 94.53125 C 313.808594 94.648438 316.199219 94.824219 318.585938 95.058594 C 320.972656 95.292969 323.351562 95.585938 325.722656 95.9375 C 328.09375 96.289062 330.457031 96.699219 332.808594 97.167969 C 335.160156 97.636719 337.5 98.160156 339.824219 98.742188 C 342.152344 99.328125 344.460938 99.964844 346.757812 100.664062 C 349.050781 101.359375 351.328125 102.109375 353.585938 102.917969 C 355.84375 103.726562 358.082031 104.589844 360.296875 105.507812 C 362.511719 106.425781 364.703125 107.394531 366.871094 108.421875 C 369.039062 109.445312 371.179688 110.523438 373.292969 111.652344 C 375.410156 112.785156 377.496094 113.964844 379.550781 115.199219 C 381.609375 116.433594 383.632812 117.714844 385.628906 119.046875 C 387.621094 120.378906 389.582031 121.757812 391.507812 123.1875 C 393.433594 124.617188 395.324219 126.089844 397.175781 127.613281 C 399.03125 129.132812 400.847656 130.699219 402.621094 132.308594 C 404.398438 133.921875 406.136719 135.574219 407.832031 137.269531 C 409.527344 138.964844 411.179688 140.699219 412.789062 142.476562 C 414.402344 144.253906 415.964844 146.070312 417.488281 147.921875 C 419.007812 149.777344 420.484375 151.667969 421.914062 153.59375 C 423.339844 155.519531 424.722656 157.476562 426.054688 159.472656 C 427.386719 161.464844 428.667969 163.492188 429.902344 165.546875 C 431.132812 167.605469 432.316406 169.691406 433.445312 171.804688 C 434.574219 173.921875 435.652344 176.0625 436.679688 178.230469 C 437.703125 180.398438 438.675781 182.589844 439.59375 184.804688 C 440.511719 187.019531 441.375 189.257812 442.183594 191.515625 C 442.988281 193.773438 443.742188 196.046875 444.4375 198.34375 C 445.132812 200.636719 445.773438 202.949219 446.355469 205.273438 C 446.9375 207.601562 447.464844 209.9375 447.929688 212.289062 C 448.398438 214.644531 448.808594 217.003906 449.160156 219.375 C 449.511719 221.75 449.804688 224.128906 450.042969 226.515625 C 450.277344 228.902344 450.453125 231.292969 450.570312 233.6875 C 450.6875 236.082031 450.746094 238.476562 450.746094 240.875 Z M 450.746094 240.875 " fill-opacity="1" fill-rule="nonzero"/></g><g clip-path="url(#0ae78f7ad2)"><path fill="#4c0bd1" d="M 194.0625 319.191406 C 302.539062 319.191406 394.261719 201.507812 431.667969 212.234375 C 449.476562 217.273438 458.40625 210.527344 466.308594 203.800781 C 477.222656 194.46875 486.132812 185.136719 513.796875 207.035156 C 539.984375 227.753906 555.46875 202.222656 573.140625 176.703125 C 587.632812 155.78125 603.589844 134.859375 628.132812 139.394531 C 682.613281 149.488281 701.148438 257.097656 701.148438 257.097656 L 49.808594 257.097656 C 49.808594 257.097656 118.4375 319.191406 194.0625 319.191406 " fill-opacity="1" fill-rule="nonzero"/></g><g clip-path="url(#0581f74f57)"><path fill="#e43397" d="M 72.574219 272.375 C 123.640625 306.675781 191.621094 301.632812 236.996094 260.183594 C 238.136719 259.046875 239.4375 258.066406 240.574219 257.097656 L 49.808594 257.097656 L 72.574219 272.375 M 450.046875 292.859375 C 494.28125 336.90625 563.078125 344.550781 615.769531 311.226562 L 701.148438 257.097656 L 413.453125 257.097656 C 416.054688 259.367188 418.820312 261.808594 421.257812 264.246094 L 450.046875 292.859375 M 240.574219 257.097656 L 413.453125 257.097656 C 364.011719 214.988281 290.664062 214.667969 240.574219 257.097656 " fill-opacity="1" fill-rule="nonzero"/></g><g clip-path="url(#fbbdb4f7c9)"><path fill="#00c4cc" d="M 277.558594 213.863281 C 287.574219 213.863281 297.917969 217.53125 308.554688 226.210938 L 309.042969 226.609375 C 284.5 229.933594 260.675781 240.070312 240.574219 257.097656 L 213.089844 257.097656 C 232.558594 233.878906 254.171875 213.84375 277.558594 213.863281 M 49.808594 257.097656 C 49.808594 257.097656 97.492188 300.238281 157.160156 314.601562 C 147.695312 320.332031 138.507812 322.734375 129.722656 322.734375 C 83.925781 322.734375 49.808594 257.097656 49.808594 257.097656 " fill-opacity="1" fill-rule="nonzero"/></g><g clip-path="url(#71687cd2a4)"><path fill="#7900ff" d="M 49.808594 257.097656 L 72.574219 272.375 C 95.214844 287.574219 121.167969 295.054688 147.011719 295.054688 C 159.972656 295.054688 172.917969 293.167969 185.394531 289.433594 C 176.496094 299.144531 167.765625 307.621094 159.910156 312.851562 C 159 313.460938 158.070312 314.046875 157.160156 314.601562 C 97.492188 300.238281 49.804688 257.097656 49.804688 257.097656 " fill-opacity="1" fill-rule="nonzero"/></g><path fill="#00c4cc" d="M 346.1875 257.097656 L 413.453125 257.097656 C 416.054688 259.367188 418.820312 261.808594 421.257812 264.246094 L 450.046875 292.859375 C 456.582031 299.371094 463.65625 305.085938 471.140625 309.996094 C 471.058594 310.027344 470.960938 310.058594 470.863281 310.085938 C 460.339844 313.507812 450.664062 315.0625 441.589844 315.0625 C 404.574219 315.0625 377.65625 289.132812 344.5625 258.21875 C 345.097656 257.847656 345.652344 257.46875 346.1875 257.097656 " fill-opacity="1" fill-rule="nonzero"/><path fill="#7900ff" d="M 343.359375 257.097656 L 346.1875 257.097656 C 345.652344 257.46875 345.097656 257.847656 344.5625 258.21875 C 344.15625 257.847656 343.765625 257.46875 343.359375 257.097656 " fill-opacity="1" fill-rule="nonzero"/><g clip-path="url(#3b2b5a13e4)"><path fill="#00c4cc" d="M 647.398438 291.167969 C 625.085938 324.753906 612.402344 371.699219 577.550781 376.25 C 575.605469 376.496094 573.757812 376.617188 571.984375 376.617188 C 550.554688 376.617188 541.171875 359.148438 531.523438 341.683594 C 529.425781 337.882812 527.328125 334.082031 525.066406 330.453125 C 531.507812 331.402344 537.996094 331.871094 544.507812 331.871094 C 569.09375 331.871094 593.824219 325.101562 615.769531 311.226562 L 647.398438 291.167969 " fill-opacity="1" fill-rule="nonzero"/></g><g clip-path="url(#a0210ac21d)"><path fill="#cb88ff" d="M 309.042969 226.609375 C 321.53125 236.882812 332.753906 247.304688 343.359375 257.097656 L 240.574219 257.097656 C 260.675781 240.070312 284.5 229.933594 309.042969 226.609375 M 49.808594 257.097656 L 213.089844 257.097656 C 204.257812 267.675781 194.746094 279.238281 185.394531 289.433594 C 172.917969 293.167969 159.972656 295.054688 147.011719 295.054688 C 121.167969 295.054688 95.214844 287.574219 72.574219 272.375 L 49.808594 257.097656 M 343.359375 257.097656 L 413.453125 257.097656 L 343.359375 257.097656 M 413.453125 257.097656 L 701.148438 257.097656 C 676.101562 257.097656 660.175781 271.941406 647.398438 291.167969 L 615.769531 311.226562 C 593.824219 325.101562 569.09375 331.871094 544.507812 331.871094 C 537.996094 331.871094 531.507812 331.402344 525.066406 330.453125 C 517 317.4375 507.128906 306.75 489.582031 306.75 C 484.214844 306.75 478.117188 307.753906 471.140625 309.996094 C 463.65625 305.085938 456.582031 299.371094 450.046875 292.859375 L 421.257812 264.246094 C 418.820312 261.808594 416.054688 259.367188 413.453125 257.097656 " fill-opacity="1" fill-rule="nonzero"/></g><g fill="#00c4cc" fill-opacity="1"><g transform="translate(236.768032, 493.72393)"><g><path d="M 80.5625 0 L 65.5 0 L 65.390625 -43.6875 L 49.265625 -6.71875 L 38.125 -6.71875 L 21.984375 -43.6875 L 21.984375 0 L 6.71875 0 L 6.71875 -67.3125 L 25.453125 -67.3125 L 43.6875 -27.265625 L 61.9375 -67.3125 L 80.5625 -67.3125 Z M 80.5625 0 "/></g></g></g><g fill="#00c4cc" fill-opacity="1"><g transform="translate(324.147912, 493.72393)"><g><path d="M 29.859375 -52.53125 C 36.972656 -52.53125 42.5 -50.878906 46.4375 -47.578125 C 50.375 -44.285156 52.375 -39.691406 52.4375 -33.796875 L 52.4375 0 L 36.203125 0 L 36.203125 -5.953125 C 32.804688 -1.472656 27.523438 0.765625 20.359375 0.765625 C 14.921875 0.765625 10.597656 -0.738281 7.390625 -3.75 C 4.191406 -6.757812 2.59375 -10.664062 2.59375 -15.46875 C 2.59375 -20.394531 4.304688 -24.21875 7.734375 -26.9375 C 11.160156 -29.65625 16.070312 -31.046875 22.46875 -31.109375 L 36.109375 -31.109375 L 36.109375 -31.875 C 36.109375 -34.4375 35.257812 -36.4375 33.5625 -37.875 C 31.863281 -39.320312 29.351562 -40.046875 26.03125 -40.046875 C 21.351562 -40.046875 16.195312 -38.601562 10.5625 -35.71875 L 5.859375 -46.671875 C 14.242188 -50.578125 22.242188 -52.53125 29.859375 -52.53125 Z M 25.453125 -10.46875 C 28.078125 -10.46875 30.378906 -11.125 32.359375 -12.4375 C 34.347656 -13.75 35.597656 -15.460938 36.109375 -17.578125 L 36.109375 -22.1875 L 25.640625 -22.1875 C 20.648438 -22.1875 18.15625 -20.328125 18.15625 -16.609375 C 18.15625 -14.691406 18.789062 -13.1875 20.0625 -12.09375 C 21.34375 -11.007812 23.140625 -10.46875 25.453125 -10.46875 Z M 25.453125 -10.46875 "/></g></g></g><g fill="#00c4cc" fill-opacity="1"><g transform="translate(381.761012, 493.72393)"><g><path d="M 29.1875 -36.875 L 38.40625 -51.765625 L 56.5625 -51.765625 L 40.140625 -26.59375 L 57.71875 0 L 38.609375 0 L 29.1875 -16.234375 L 18.625 0 L 0.390625 0 L 18.046875 -26.5 L 1.53125 -51.765625 L 20.546875 -51.765625 Z M 29.1875 -36.875 "/></g></g></g><g fill="#00c4cc" fill-opacity="1"><g transform="translate(439.950241, 493.72393)"><g><path d="M 18.25 -41 L 5.765625 -41 L 5.765625 -67.21875 L 18.25 -67.21875 Z M 18.25 -41 "/></g></g></g><g fill="#00c4cc" fill-opacity="1"><g transform="translate(463.955708, 493.72393)"><g><path d="M 25.15625 -52.53125 C 32.78125 -52.53125 39.890625 -50.578125 46.484375 -46.671875 L 40.8125 -35.921875 C 34.40625 -39.367188 28.960938 -41.09375 24.484375 -41.09375 C 21.085938 -41.09375 19.390625 -39.910156 19.390625 -37.546875 C 19.390625 -36.265625 20.316406 -35.191406 22.171875 -34.328125 C 24.035156 -33.460938 26.3125 -32.675781 29 -31.96875 C 31.6875 -31.269531 34.359375 -30.390625 37.015625 -29.328125 C 39.671875 -28.273438 41.925781 -26.597656 43.78125 -24.296875 C 45.644531 -21.992188 46.578125 -19.175781 46.578125 -15.84375 C 46.578125 -10.65625 44.554688 -6.601562 40.515625 -3.6875 C 36.484375 -0.78125 31.238281 0.671875 24.78125 0.671875 C 15.625 0.671875 7.875 -1.757812 1.53125 -6.625 L 6.8125 -17.1875 C 12.894531 -12.894531 19.007812 -10.75 25.15625 -10.75 C 28.9375 -10.75 30.828125 -11.9375 30.828125 -14.3125 C 30.828125 -15.65625 29.914062 -16.773438 28.09375 -17.671875 C 26.269531 -18.566406 24.046875 -19.363281 21.421875 -20.0625 C 18.796875 -20.769531 16.171875 -21.648438 13.546875 -22.703125 C 10.921875 -23.765625 8.691406 -25.414062 6.859375 -27.65625 C 5.035156 -29.894531 4.125 -32.710938 4.125 -36.109375 C 4.125 -41.296875 6.078125 -45.328125 9.984375 -48.203125 C 13.890625 -51.085938 18.945312 -52.53125 25.15625 -52.53125 Z M 25.15625 -52.53125 "/></g></g></g><g fill="#00c4cc" fill-opacity="1"><g transform="translate(119.044349, 588.268674)"><g><path d="M 80.5625 0 L 65.5 0 L 65.390625 -43.6875 L 49.265625 -6.71875 L 38.125 -6.71875 L 21.984375 -43.6875 L 21.984375 0 L 6.71875 0 L 6.71875 -67.3125 L 25.453125 -67.3125 L 43.6875 -27.265625 L 61.9375 -67.3125 L 80.5625 -67.3125 Z M 80.5625 0 "/></g></g></g><g fill="#00c4cc" fill-opacity="1"><g transform="translate(206.424229, 588.268674)"><g><path d="M 57.046875 -51.765625 L 57.046875 0 L 40.421875 0 L 40.421875 -8.546875 C 36.898438 -2.398438 31.300781 0.671875 23.625 0.671875 C 17.988281 0.671875 13.488281 -1.117188 10.125 -4.703125 C 6.769531 -8.285156 5.09375 -13.085938 5.09375 -19.109375 L 5.09375 -51.765625 L 21.703125 -51.765625 L 21.703125 -23.8125 C 21.703125 -20.738281 22.484375 -18.320312 24.046875 -16.5625 C 25.617188 -14.800781 27.71875 -13.921875 30.34375 -13.921875 C 33.476562 -13.984375 35.941406 -15.148438 37.734375 -17.421875 C 39.523438 -19.703125 40.421875 -22.632812 40.421875 -26.21875 L 40.421875 -51.765625 Z M 57.046875 -51.765625 "/></g></g></g><g fill="#00c4cc" fill-opacity="1"><g transform="translate(270.086725, 588.268674)"><g><path d="M 25.15625 -52.53125 C 32.78125 -52.53125 39.890625 -50.578125 46.484375 -46.671875 L 40.8125 -35.921875 C 34.40625 -39.367188 28.960938 -41.09375 24.484375 -41.09375 C 21.085938 -41.09375 19.390625 -39.910156 19.390625 -37.546875 C 19.390625 -36.265625 20.316406 -35.191406 22.171875 -34.328125 C 24.035156 -33.460938 26.3125 -32.675781 29 -31.96875 C 31.6875 -31.269531 34.359375 -30.390625 37.015625 -29.328125 C 39.671875 -28.273438 41.925781 -26.597656 43.78125 -24.296875 C 45.644531 -21.992188 46.578125 -19.175781 46.578125 -15.84375 C 46.578125 -10.65625 44.554688 -6.601562 40.515625 -3.6875 C 36.484375 -0.78125 31.238281 0.671875 24.78125 0.671875 C 15.625 0.671875 7.875 -1.757812 1.53125 -6.625 L 6.8125 -17.1875 C 12.894531 -12.894531 19.007812 -10.75 25.15625 -10.75 C 28.9375 -10.75 30.828125 -11.9375 30.828125 -14.3125 C 30.828125 -15.65625 29.914062 -16.773438 28.09375 -17.671875 C 26.269531 -18.566406 24.046875 -19.363281 21.421875 -20.0625 C 18.796875 -20.769531 16.171875 -21.648438 13.546875 -22.703125 C 10.921875 -23.765625 8.691406 -25.414062 6.859375 -27.65625 C 5.035156 -29.894531 4.125 -32.710938 4.125 -36.109375 C 4.125 -41.296875 6.078125 -45.328125 9.984375 -48.203125 C 13.890625 -51.085938 18.945312 -52.53125 25.15625 -52.53125 Z M 25.15625 -52.53125 "/></g></g></g><g fill="#00c4cc" fill-opacity="1"><g transform="translate(319.345953, 588.268674)"><g><path d="M 8.6875 -72.9375 C 10.320312 -74.570312 12.421875 -75.390625 14.984375 -75.390625 C 17.546875 -75.390625 19.640625 -74.570312 21.265625 -72.9375 C 22.898438 -71.300781 23.71875 -69.203125 23.71875 -66.640625 C 23.71875 -64.078125 22.898438 -61.960938 21.265625 -60.296875 C 19.640625 -58.640625 17.546875 -57.8125 14.984375 -57.8125 C 12.421875 -57.8125 10.320312 -58.640625 8.6875 -60.296875 C 7.050781 -61.960938 6.234375 -64.078125 6.234375 -66.640625 C 6.234375 -69.203125 7.050781 -71.300781 8.6875 -72.9375 Z M 23.140625 0 L 6.625 0 L 6.625 -51.765625 L 23.140625 -51.765625 Z M 23.140625 0 "/></g></g></g><g fill="#00c4cc" fill-opacity="1"><g transform="translate(349.208738, 588.268674)"><g><path d="M 29.1875 -52.34375 C 34.3125 -52.34375 38.875 -51.332031 42.875 -49.3125 C 46.875 -47.289062 49.992188 -44.425781 52.234375 -40.71875 L 40.328125 -33.515625 C 37.765625 -37.097656 34.273438 -38.890625 29.859375 -38.890625 C 26.660156 -38.890625 24.050781 -37.6875 22.03125 -35.28125 C 20.019531 -32.882812 19.015625 -29.734375 19.015625 -25.828125 C 19.015625 -21.859375 20.003906 -18.671875 21.984375 -16.265625 C 23.972656 -13.867188 26.597656 -12.671875 29.859375 -12.671875 C 34.734375 -12.671875 38.253906 -14.625 40.421875 -18.53125 L 52.53125 -11.421875 C 50.414062 -7.585938 47.328125 -4.628906 43.265625 -2.546875 C 39.203125 -0.460938 34.445312 0.578125 29 0.578125 C 21 0.578125 14.550781 -1.835938 9.65625 -6.671875 C 4.757812 -11.503906 2.3125 -17.859375 2.3125 -25.734375 C 2.3125 -33.671875 4.789062 -40.085938 9.75 -44.984375 C 14.707031 -49.890625 21.1875 -52.34375 29.1875 -52.34375 Z M 29.1875 -52.34375 "/></g></g></g><g fill="#00c4cc" fill-opacity="1"><g transform="translate(403.173028, 588.268674)"><g/></g></g><g fill="#00c4cc" fill-opacity="1"><g transform="translate(425.450111, 588.268674)"><g><path d="M 51.375 -12.390625 L 21.984375 -12.390625 L 17.09375 0 L -0.484375 0 L 28.515625 -67.21875 L 46.09375 -67.21875 L 74.421875 0 L 56.171875 0 Z M 46.390625 -25.359375 L 36.78125 -50.21875 L 26.984375 -25.359375 Z M 46.390625 -25.359375 "/></g></g></g><g fill="#00c4cc" fill-opacity="1"><g transform="translate(499.38694, 588.268674)"><g><path d="M 39.1875 -52.34375 C 46.476562 -52.34375 52.347656 -49.890625 56.796875 -44.984375 C 61.253906 -40.085938 63.484375 -33.640625 63.484375 -25.640625 C 63.484375 -17.765625 61.304688 -11.425781 56.953125 -6.625 C 52.597656 -1.820312 46.800781 0.578125 39.5625 0.578125 C 32.78125 0.578125 27.5 -1.921875 23.71875 -6.921875 L 23.71875 18.625 L 7.109375 18.625 L 7.109375 -51.765625 L 23.71875 -51.765625 L 23.71875 -44.9375 C 27.5625 -49.875 32.71875 -52.34375 39.1875 -52.34375 Z M 35.140625 -12.578125 C 38.597656 -12.578125 41.398438 -13.84375 43.546875 -16.375 C 45.691406 -18.90625 46.765625 -22.15625 46.765625 -26.125 C 46.765625 -30.09375 45.691406 -33.320312 43.546875 -35.8125 C 41.398438 -38.3125 38.597656 -39.5625 35.140625 -39.5625 C 31.816406 -39.5625 29.082031 -38.3125 26.9375 -35.8125 C 24.789062 -33.320312 23.71875 -30.09375 23.71875 -26.125 C 23.71875 -22.09375 24.773438 -18.828125 26.890625 -16.328125 C 29.003906 -13.828125 31.753906 -12.578125 35.140625 -12.578125 Z M 35.140625 -12.578125 "/></g></g></g><g fill="#00c4cc" fill-opacity="1"><g transform="translate(565.161903, 588.268674)"><g><path d="M 39.1875 -52.34375 C 46.476562 -52.34375 52.347656 -49.890625 56.796875 -44.984375 C 61.253906 -40.085938 63.484375 -33.640625 63.484375 -25.640625 C 63.484375 -17.765625 61.304688 -11.425781 56.953125 -6.625 C 52.597656 -1.820312 46.800781 0.578125 39.5625 0.578125 C 32.78125 0.578125 27.5 -1.921875 23.71875 -6.921875 L 23.71875 18.625 L 7.109375 18.625 L 7.109375 -51.765625 L 23.71875 -51.765625 L 23.71875 -44.9375 C 27.5625 -49.875 32.71875 -52.34375 39.1875 -52.34375 Z M 35.140625 -12.578125 C 38.597656 -12.578125 41.398438 -13.84375 43.546875 -16.375 C 45.691406 -18.90625 46.765625 -22.15625 46.765625 -26.125 C 46.765625 -30.09375 45.691406 -33.320312 43.546875 -35.8125 C 41.398438 -38.3125 38.597656 -39.5625 35.140625 -39.5625 C 31.816406 -39.5625 29.082031 -38.3125 26.9375 -35.8125 C 24.789062 -33.320312 23.71875 -30.09375 23.71875 -26.125 C 23.71875 -22.09375 24.773438 -18.828125 26.890625 -16.328125 C 29.003906 -13.828125 31.753906 -12.578125 35.140625 -12.578125 Z M 35.140625 -12.578125 "/></g></g></g><g fill="#e43397" fill-opacity="1"><g transform="translate(199.416726, 647.107017)"><g><path d="M 16.9375 -5.734375 L 5 -5.734375 L 2.421875 0 L 0.0625 0 L 9.859375 -21.453125 L 12.109375 -21.453125 L 21.90625 0 L 19.515625 0 Z M 16.109375 -7.5625 L 10.96875 -19.09375 L 5.828125 -7.5625 Z M 16.109375 -7.5625 "/></g></g></g><g fill="#e43397" fill-opacity="1"><g transform="translate(221.37039, 647.107017)"><g/></g></g><g fill="#e43397" fill-opacity="1"><g transform="translate(229.392525, 647.107017)"><g><path d="M 9.40625 0.1875 C 7.8125 0.1875 6.285156 -0.0664062 4.828125 -0.578125 C 3.367188 -1.085938 2.238281 -1.765625 1.4375 -2.609375 L 2.328125 -4.34375 C 3.109375 -3.570312 4.140625 -2.945312 5.421875 -2.46875 C 6.710938 -1.988281 8.039062 -1.75 9.40625 -1.75 C 11.320312 -1.75 12.757812 -2.097656 13.71875 -2.796875 C 14.6875 -3.503906 15.171875 -4.421875 15.171875 -5.546875 C 15.171875 -6.398438 14.910156 -7.082031 14.390625 -7.59375 C 13.867188 -8.101562 13.226562 -8.492188 12.46875 -8.765625 C 11.71875 -9.046875 10.664062 -9.351562 9.3125 -9.6875 C 7.695312 -10.09375 6.410156 -10.484375 5.453125 -10.859375 C 4.492188 -11.234375 3.671875 -11.804688 2.984375 -12.578125 C 2.304688 -13.359375 1.96875 -14.414062 1.96875 -15.75 C 1.96875 -16.832031 2.25 -17.816406 2.8125 -18.703125 C 3.382812 -19.585938 4.265625 -20.296875 5.453125 -20.828125 C 6.640625 -21.359375 8.109375 -21.625 9.859375 -21.625 C 11.085938 -21.625 12.289062 -21.457031 13.46875 -21.125 C 14.644531 -20.789062 15.660156 -20.328125 16.515625 -19.734375 L 15.75 -17.921875 C 14.851562 -18.515625 13.894531 -18.957031 12.875 -19.25 C 11.851562 -19.550781 10.847656 -19.703125 9.859375 -19.703125 C 7.984375 -19.703125 6.570312 -19.335938 5.625 -18.609375 C 4.675781 -17.890625 4.203125 -16.957031 4.203125 -15.8125 C 4.203125 -14.957031 4.460938 -14.269531 4.984375 -13.75 C 5.503906 -13.226562 6.15625 -12.828125 6.9375 -12.546875 C 7.726562 -12.273438 8.785156 -11.972656 10.109375 -11.640625 C 11.679688 -11.253906 12.953125 -10.867188 13.921875 -10.484375 C 14.890625 -10.109375 15.710938 -9.535156 16.390625 -8.765625 C 17.066406 -8.003906 17.40625 -6.972656 17.40625 -5.671875 C 17.40625 -4.585938 17.113281 -3.597656 16.53125 -2.703125 C 15.945312 -1.816406 15.050781 -1.113281 13.84375 -0.59375 C 12.644531 -0.0703125 11.164062 0.1875 9.40625 0.1875 Z M 9.40625 0.1875 "/></g></g></g><g fill="#e43397" fill-opacity="1"><g transform="translate(248.223073, 647.107017)"><g><path d="M 11.34375 -16.234375 C 12.851562 -16.234375 14.21875 -15.890625 15.4375 -15.203125 C 16.664062 -14.523438 17.625 -13.5625 18.3125 -12.3125 C 19.007812 -11.070312 19.359375 -9.65625 19.359375 -8.0625 C 19.359375 -6.445312 19.007812 -5.015625 18.3125 -3.765625 C 17.625 -2.523438 16.671875 -1.5625 15.453125 -0.875 C 14.242188 -0.1875 12.875 0.15625 11.34375 0.15625 C 10.03125 0.15625 8.847656 -0.113281 7.796875 -0.65625 C 6.742188 -1.195312 5.878906 -1.988281 5.203125 -3.03125 L 5.203125 5.9375 L 3.03125 5.9375 L 3.03125 -16.109375 L 5.109375 -16.109375 L 5.109375 -12.9375 C 5.765625 -14 6.628906 -14.8125 7.703125 -15.375 C 8.773438 -15.945312 9.988281 -16.234375 11.34375 -16.234375 Z M 11.1875 -1.78125 C 12.3125 -1.78125 13.332031 -2.039062 14.25 -2.5625 C 15.164062 -3.082031 15.882812 -3.820312 16.40625 -4.78125 C 16.925781 -5.738281 17.1875 -6.832031 17.1875 -8.0625 C 17.1875 -9.28125 16.925781 -10.363281 16.40625 -11.3125 C 15.882812 -12.269531 15.164062 -13.015625 14.25 -13.546875 C 13.332031 -14.078125 12.3125 -14.34375 11.1875 -14.34375 C 10.039062 -14.34375 9.007812 -14.078125 8.09375 -13.546875 C 7.1875 -13.015625 6.472656 -12.269531 5.953125 -11.3125 C 5.429688 -10.363281 5.171875 -9.28125 5.171875 -8.0625 C 5.171875 -6.832031 5.429688 -5.738281 5.953125 -4.78125 C 6.472656 -3.820312 7.1875 -3.082031 8.09375 -2.5625 C 9.007812 -2.039062 10.039062 -1.78125 11.1875 -1.78125 Z M 11.1875 -1.78125 "/></g></g></g><g fill="#e43397" fill-opacity="1"><g transform="translate(268.982615, 647.107017)"><g><path d="M 9.625 0.15625 C 8.070312 0.15625 6.671875 -0.195312 5.421875 -0.90625 C 4.171875 -1.613281 3.1875 -2.585938 2.46875 -3.828125 C 1.757812 -5.078125 1.40625 -6.488281 1.40625 -8.0625 C 1.40625 -9.632812 1.757812 -11.039062 2.46875 -12.28125 C 3.1875 -13.53125 4.171875 -14.5 5.421875 -15.1875 C 6.671875 -15.882812 8.070312 -16.234375 9.625 -16.234375 C 11.175781 -16.234375 12.570312 -15.882812 13.8125 -15.1875 C 15.0625 -14.5 16.035156 -13.53125 16.734375 -12.28125 C 17.441406 -11.039062 17.796875 -9.632812 17.796875 -8.0625 C 17.796875 -6.488281 17.441406 -5.078125 16.734375 -3.828125 C 16.035156 -2.585938 15.0625 -1.613281 13.8125 -0.90625 C 12.570312 -0.195312 11.175781 0.15625 9.625 0.15625 Z M 9.625 -1.78125 C 10.769531 -1.78125 11.796875 -2.039062 12.703125 -2.5625 C 13.609375 -3.082031 14.316406 -3.820312 14.828125 -4.78125 C 15.335938 -5.738281 15.59375 -6.832031 15.59375 -8.0625 C 15.59375 -9.28125 15.335938 -10.367188 14.828125 -11.328125 C 14.316406 -12.296875 13.609375 -13.039062 12.703125 -13.5625 C 11.796875 -14.082031 10.769531 -14.34375 9.625 -14.34375 C 8.476562 -14.34375 7.445312 -14.082031 6.53125 -13.5625 C 5.625 -13.039062 4.910156 -12.296875 4.390625 -11.328125 C 3.867188 -10.367188 3.609375 -9.28125 3.609375 -8.0625 C 3.609375 -6.832031 3.867188 -5.738281 4.390625 -4.78125 C 4.910156 -3.820312 5.625 -3.082031 6.53125 -2.5625 C 7.445312 -2.039062 8.476562 -1.78125 9.625 -1.78125 Z M 9.625 -1.78125 "/></g></g></g><g fill="#e43397" fill-opacity="1"><g transform="translate(288.18061, 647.107017)"><g><path d="M 11.515625 -0.984375 C 11.109375 -0.609375 10.601562 -0.320312 10 -0.125 C 9.394531 0.0625 8.769531 0.15625 8.125 0.15625 C 6.613281 0.15625 5.445312 -0.25 4.625 -1.0625 C 3.8125 -1.882812 3.40625 -3.039062 3.40625 -4.53125 L 3.40625 -14.28125 L 0.515625 -14.28125 L 0.515625 -16.109375 L 3.40625 -16.109375 L 3.40625 -19.640625 L 5.578125 -19.640625 L 5.578125 -16.109375 L 10.484375 -16.109375 L 10.484375 -14.28125 L 5.578125 -14.28125 L 5.578125 -4.65625 C 5.578125 -3.695312 5.816406 -2.96875 6.296875 -2.46875 C 6.773438 -1.96875 7.460938 -1.71875 8.359375 -1.71875 C 8.804688 -1.71875 9.238281 -1.785156 9.65625 -1.921875 C 10.082031 -2.066406 10.445312 -2.273438 10.75 -2.546875 Z M 11.515625 -0.984375 "/></g></g></g><g fill="#e43397" fill-opacity="1"><g transform="translate(300.611835, 647.107017)"><g><path d="M 3.03125 -16.109375 L 5.203125 -16.109375 L 5.203125 0 L 3.03125 0 Z M 4.140625 -19.640625 C 3.691406 -19.640625 3.3125 -19.789062 3 -20.09375 C 2.695312 -20.40625 2.546875 -20.773438 2.546875 -21.203125 C 2.546875 -21.609375 2.695312 -21.960938 3 -22.265625 C 3.3125 -22.578125 3.691406 -22.734375 4.140625 -22.734375 C 4.585938 -22.734375 4.960938 -22.582031 5.265625 -22.28125 C 5.578125 -21.988281 5.734375 -21.640625 5.734375 -21.234375 C 5.734375 -20.785156 5.578125 -20.40625 5.265625 -20.09375 C 4.960938 -19.789062 4.585938 -19.640625 4.140625 -19.640625 Z M 4.140625 -19.640625 "/></g></g></g><g fill="#e43397" fill-opacity="1"><g transform="translate(308.84828, 647.107017)"><g><path d="M 8.359375 -21.046875 C 7.421875 -21.046875 6.710938 -20.789062 6.234375 -20.28125 C 5.753906 -19.769531 5.515625 -19.015625 5.515625 -18.015625 L 5.515625 -16.109375 L 10.484375 -16.109375 L 10.484375 -14.28125 L 5.578125 -14.28125 L 5.578125 0 L 3.40625 0 L 3.40625 -14.28125 L 0.515625 -14.28125 L 0.515625 -16.109375 L 3.40625 -16.109375 L 3.40625 -18.109375 C 3.40625 -19.578125 3.828125 -20.738281 4.671875 -21.59375 C 5.515625 -22.457031 6.710938 -22.890625 8.265625 -22.890625 C 8.878906 -22.890625 9.472656 -22.800781 10.046875 -22.625 C 10.617188 -22.457031 11.097656 -22.207031 11.484375 -21.875 L 10.75 -20.25 C 10.125 -20.78125 9.328125 -21.046875 8.359375 -21.046875 Z M 8.359375 -21.046875 "/></g></g></g><g fill="#e43397" fill-opacity="1"><g transform="translate(319.228051, 647.107017)"><g><path d="M 16.578125 -16.109375 L 8.515625 1.9375 C 7.859375 3.445312 7.101562 4.515625 6.25 5.140625 C 5.394531 5.773438 4.363281 6.09375 3.15625 6.09375 C 2.375 6.09375 1.644531 5.96875 0.96875 5.71875 C 0.300781 5.476562 -0.273438 5.113281 -0.765625 4.625 L 0.25 3 C 1.0625 3.820312 2.039062 4.234375 3.1875 4.234375 C 3.925781 4.234375 4.554688 4.023438 5.078125 3.609375 C 5.597656 3.203125 6.082031 2.507812 6.53125 1.53125 L 7.234375 -0.03125 L 0.03125 -16.109375 L 2.296875 -16.109375 L 8.359375 -2.421875 L 14.4375 -16.109375 Z M 16.578125 -16.109375 "/></g></g></g><g fill="#e43397" fill-opacity="1"><g transform="translate(335.823445, 647.107017)"><g/></g></g><g fill="#e43397" fill-opacity="1"><g transform="translate(343.845579, 647.107017)"><g><path d="M 12.8125 0.1875 C 10.6875 0.1875 8.769531 -0.28125 7.0625 -1.21875 C 5.351562 -2.164062 4.015625 -3.46875 3.046875 -5.125 C 2.078125 -6.789062 1.59375 -8.65625 1.59375 -10.71875 C 1.59375 -12.78125 2.078125 -14.644531 3.046875 -16.3125 C 4.015625 -17.976562 5.359375 -19.28125 7.078125 -20.21875 C 8.796875 -21.15625 10.71875 -21.625 12.84375 -21.625 C 14.4375 -21.625 15.90625 -21.359375 17.25 -20.828125 C 18.59375 -20.296875 19.738281 -19.519531 20.6875 -18.5 L 19.25 -17.0625 C 17.570312 -18.757812 15.457031 -19.609375 12.90625 -19.609375 C 11.207031 -19.609375 9.660156 -19.21875 8.265625 -18.4375 C 6.878906 -17.664062 5.789062 -16.601562 5 -15.25 C 4.21875 -13.90625 3.828125 -12.394531 3.828125 -10.71875 C 3.828125 -9.050781 4.21875 -7.539062 5 -6.1875 C 5.789062 -4.84375 6.878906 -3.78125 8.265625 -3 C 9.660156 -2.226562 11.207031 -1.84375 12.90625 -1.84375 C 15.476562 -1.84375 17.59375 -2.695312 19.25 -4.40625 L 20.6875 -2.96875 C 19.738281 -1.945312 18.585938 -1.164062 17.234375 -0.625 C 15.878906 -0.0820312 14.40625 0.1875 12.8125 0.1875 Z M 12.8125 0.1875 "/></g></g></g><g fill="#e43397" fill-opacity="1"><g transform="translate(365.860485, 647.107017)"><g><path d="M 3.03125 -22.734375 L 5.203125 -22.734375 L 5.203125 0 L 3.03125 0 Z M 3.03125 -22.734375 "/></g></g></g><g fill="#e43397" fill-opacity="1"><g transform="translate(374.09693, 647.107017)"><g><path d="M 9.625 0.15625 C 8.070312 0.15625 6.671875 -0.195312 5.421875 -0.90625 C 4.171875 -1.613281 3.1875 -2.585938 2.46875 -3.828125 C 1.757812 -5.078125 1.40625 -6.488281 1.40625 -8.0625 C 1.40625 -9.632812 1.757812 -11.039062 2.46875 -12.28125 C 3.1875 -13.53125 4.171875 -14.5 5.421875 -15.1875 C 6.671875 -15.882812 8.070312 -16.234375 9.625 -16.234375 C 11.175781 -16.234375 12.570312 -15.882812 13.8125 -15.1875 C 15.0625 -14.5 16.035156 -13.53125 16.734375 -12.28125 C 17.441406 -11.039062 17.796875 -9.632812 17.796875 -8.0625 C 17.796875 -6.488281 17.441406 -5.078125 16.734375 -3.828125 C 16.035156 -2.585938 15.0625 -1.613281 13.8125 -0.90625 C 12.570312 -0.195312 11.175781 0.15625 9.625 0.15625 Z M 9.625 -1.78125 C 10.769531 -1.78125 11.796875 -2.039062 12.703125 -2.5625 C 13.609375 -3.082031 14.316406 -3.820312 14.828125 -4.78125 C 15.335938 -5.738281 15.59375 -6.832031 15.59375 -8.0625 C 15.59375 -9.28125 15.335938 -10.367188 14.828125 -11.328125 C 14.316406 -12.296875 13.609375 -13.039062 12.703125 -13.5625 C 11.796875 -14.082031 10.769531 -14.34375 9.625 -14.34375 C 8.476562 -14.34375 7.445312 -14.082031 6.53125 -13.5625 C 5.625 -13.039062 4.910156 -12.296875 4.390625 -11.328125 C 3.867188 -10.367188 3.609375 -9.28125 3.609375 -8.0625 C 3.609375 -6.832031 3.867188 -5.738281 4.390625 -4.78125 C 4.910156 -3.820312 5.625 -3.082031 6.53125 -2.5625 C 7.445312 -2.039062 8.476562 -1.78125 9.625 -1.78125 Z M 9.625 -1.78125 "/></g></g></g><g fill="#e43397" fill-opacity="1"><g transform="translate(393.294925, 647.107017)"><g><path d="M 11.25 -16.234375 C 13.269531 -16.234375 14.875 -15.644531 16.0625 -14.46875 C 17.257812 -13.300781 17.859375 -11.59375 17.859375 -9.34375 L 17.859375 0 L 15.6875 0 L 15.6875 -9.125 C 15.6875 -10.800781 15.265625 -12.078125 14.421875 -12.953125 C 13.585938 -13.835938 12.394531 -14.28125 10.84375 -14.28125 C 9.113281 -14.28125 7.738281 -13.765625 6.71875 -12.734375 C 5.707031 -11.703125 5.203125 -10.273438 5.203125 -8.453125 L 5.203125 0 L 3.03125 0 L 3.03125 -16.109375 L 5.109375 -16.109375 L 5.109375 -13.140625 C 5.703125 -14.117188 6.523438 -14.878906 7.578125 -15.421875 C 8.628906 -15.960938 9.851562 -16.234375 11.25 -16.234375 Z M 11.25 -16.234375 "/></g></g></g><g fill="#e43397" fill-opacity="1"><g transform="translate(414.023858, 647.107017)"><g><path d="M 17.0625 -7.390625 L 3.578125 -7.390625 C 3.703125 -5.710938 4.347656 -4.359375 5.515625 -3.328125 C 6.679688 -2.296875 8.148438 -1.78125 9.921875 -1.78125 C 10.921875 -1.78125 11.835938 -1.957031 12.671875 -2.3125 C 13.515625 -2.664062 14.242188 -3.191406 14.859375 -3.890625 L 16.09375 -2.484375 C 15.375 -1.617188 14.476562 -0.960938 13.40625 -0.515625 C 12.332031 -0.0664062 11.148438 0.15625 9.859375 0.15625 C 8.210938 0.15625 6.75 -0.195312 5.46875 -0.90625 C 4.1875 -1.613281 3.1875 -2.585938 2.46875 -3.828125 C 1.757812 -5.078125 1.40625 -6.488281 1.40625 -8.0625 C 1.40625 -9.632812 1.75 -11.039062 2.4375 -12.28125 C 3.125 -13.53125 4.0625 -14.5 5.25 -15.1875 C 6.445312 -15.882812 7.789062 -16.234375 9.28125 -16.234375 C 10.769531 -16.234375 12.109375 -15.882812 13.296875 -15.1875 C 14.484375 -14.5 15.410156 -13.535156 16.078125 -12.296875 C 16.753906 -11.066406 17.09375 -9.65625 17.09375 -8.0625 Z M 9.28125 -14.375 C 7.726562 -14.375 6.425781 -13.875 5.375 -12.875 C 4.320312 -11.882812 3.722656 -10.597656 3.578125 -9.015625 L 15.015625 -9.015625 C 14.867188 -10.597656 14.269531 -11.882812 13.21875 -12.875 C 12.164062 -13.875 10.851562 -14.375 9.28125 -14.375 Z M 9.28125 -14.375 "/></g></g></g><g fill="#e43397" fill-opacity="1"><g transform="translate(432.517614, 647.107017)"><g/></g></g><g fill="#e43397" fill-opacity="1"><g transform="translate(440.539748, 647.107017)"><g><path d="M 11.515625 -21.453125 C 14.253906 -21.453125 16.398438 -20.796875 17.953125 -19.484375 C 19.503906 -18.179688 20.28125 -16.382812 20.28125 -14.09375 C 20.28125 -11.800781 19.503906 -10.003906 17.953125 -8.703125 C 16.398438 -7.410156 14.253906 -6.765625 11.515625 -6.765625 L 5.765625 -6.765625 L 5.765625 0 L 3.5 0 L 3.5 -21.453125 Z M 11.453125 -8.765625 C 13.578125 -8.765625 15.203125 -9.226562 16.328125 -10.15625 C 17.453125 -11.082031 18.015625 -12.394531 18.015625 -14.09375 C 18.015625 -15.832031 17.453125 -17.164062 16.328125 -18.09375 C 15.203125 -19.019531 13.578125 -19.484375 11.453125 -19.484375 L 5.765625 -19.484375 L 5.765625 -8.765625 Z M 11.453125 -8.765625 "/></g></g></g><g fill="#e43397" fill-opacity="1"><g transform="translate(462.524044, 647.107017)"><g><path d="M 5.109375 -12.96875 C 5.628906 -14.039062 6.394531 -14.851562 7.40625 -15.40625 C 8.414062 -15.957031 9.664062 -16.234375 11.15625 -16.234375 L 11.15625 -14.125 L 10.625 -14.15625 C 8.9375 -14.15625 7.609375 -13.632812 6.640625 -12.59375 C 5.679688 -11.550781 5.203125 -10.09375 5.203125 -8.21875 L 5.203125 0 L 3.03125 0 L 3.03125 -16.109375 L 5.109375 -16.109375 Z M 5.109375 -12.96875 "/></g></g></g><g fill="#e43397" fill-opacity="1"><g transform="translate(474.802177, 647.107017)"><g><path d="M 9.625 0.15625 C 8.070312 0.15625 6.671875 -0.195312 5.421875 -0.90625 C 4.171875 -1.613281 3.1875 -2.585938 2.46875 -3.828125 C 1.757812 -5.078125 1.40625 -6.488281 1.40625 -8.0625 C 1.40625 -9.632812 1.757812 -11.039062 2.46875 -12.28125 C 3.1875 -13.53125 4.171875 -14.5 5.421875 -15.1875 C 6.671875 -15.882812 8.070312 -16.234375 9.625 -16.234375 C 11.175781 -16.234375 12.570312 -15.882812 13.8125 -15.1875 C 15.0625 -14.5 16.035156 -13.53125 16.734375 -12.28125 C 17.441406 -11.039062 17.796875 -9.632812 17.796875 -8.0625 C 17.796875 -6.488281 17.441406 -5.078125 16.734375 -3.828125 C 16.035156 -2.585938 15.0625 -1.613281 13.8125 -0.90625 C 12.570312 -0.195312 11.175781 0.15625 9.625 0.15625 Z M 9.625 -1.78125 C 10.769531 -1.78125 11.796875 -2.039062 12.703125 -2.5625 C 13.609375 -3.082031 14.316406 -3.820312 14.828125 -4.78125 C 15.335938 -5.738281 15.59375 -6.832031 15.59375 -8.0625 C 15.59375 -9.28125 15.335938 -10.367188 14.828125 -11.328125 C 14.316406 -12.296875 13.609375 -13.039062 12.703125 -13.5625 C 11.796875 -14.082031 10.769531 -14.34375 9.625 -14.34375 C 8.476562 -14.34375 7.445312 -14.082031 6.53125 -13.5625 C 5.625 -13.039062 4.910156 -12.296875 4.390625 -11.328125 C 3.867188 -10.367188 3.609375 -9.28125 3.609375 -8.0625 C 3.609375 -6.832031 3.867188 -5.738281 4.390625 -4.78125 C 4.910156 -3.820312 5.625 -3.082031 6.53125 -2.5625 C 7.445312 -2.039062 8.476562 -1.78125 9.625 -1.78125 Z M 9.625 -1.78125 "/></g></g></g><g fill="#e43397" fill-opacity="1"><g transform="translate(494.000172, 647.107017)"><g><path d="M 0.640625 6.09375 C -0.0351562 6.09375 -0.671875 6.003906 -1.265625 5.828125 C -1.867188 5.660156 -2.363281 5.40625 -2.75 5.0625 L -1.984375 3.40625 C -1.359375 3.957031 -0.523438 4.234375 0.515625 4.234375 C 1.378906 4.234375 2.039062 3.976562 2.5 3.46875 C 2.957031 2.957031 3.1875 2.195312 3.1875 1.1875 L 3.1875 -16.109375 L 5.359375 -16.109375 L 5.359375 1.1875 C 5.359375 2.707031 4.945312 3.90625 4.125 4.78125 C 3.3125 5.65625 2.148438 6.09375 0.640625 6.09375 Z M 4.296875 -19.671875 C 3.847656 -19.671875 3.46875 -19.820312 3.15625 -20.125 C 2.851562 -20.4375 2.703125 -20.804688 2.703125 -21.234375 C 2.703125 -21.640625 2.851562 -21.992188 3.15625 -22.296875 C 3.46875 -22.609375 3.847656 -22.765625 4.296875 -22.765625 C 4.742188 -22.765625 5.117188 -22.613281 5.421875 -22.3125 C 5.734375 -22.019531 5.890625 -21.671875 5.890625 -21.265625 C 5.890625 -20.816406 5.734375 -20.4375 5.421875 -20.125 C 5.117188 -19.820312 4.742188 -19.671875 4.296875 -19.671875 Z M 4.296875 -19.671875 "/></g></g></g><g fill="#e43397" fill-opacity="1"><g transform="translate(502.389731, 647.107017)"><g><path d="M 17.0625 -7.390625 L 3.578125 -7.390625 C 3.703125 -5.710938 4.347656 -4.359375 5.515625 -3.328125 C 6.679688 -2.296875 8.148438 -1.78125 9.921875 -1.78125 C 10.921875 -1.78125 11.835938 -1.957031 12.671875 -2.3125 C 13.515625 -2.664062 14.242188 -3.191406 14.859375 -3.890625 L 16.09375 -2.484375 C 15.375 -1.617188 14.476562 -0.960938 13.40625 -0.515625 C 12.332031 -0.0664062 11.148438 0.15625 9.859375 0.15625 C 8.210938 0.15625 6.75 -0.195312 5.46875 -0.90625 C 4.1875 -1.613281 3.1875 -2.585938 2.46875 -3.828125 C 1.757812 -5.078125 1.40625 -6.488281 1.40625 -8.0625 C 1.40625 -9.632812 1.75 -11.039062 2.4375 -12.28125 C 3.125 -13.53125 4.0625 -14.5 5.25 -15.1875 C 6.445312 -15.882812 7.789062 -16.234375 9.28125 -16.234375 C 10.769531 -16.234375 12.109375 -15.882812 13.296875 -15.1875 C 14.484375 -14.5 15.410156 -13.535156 16.078125 -12.296875 C 16.753906 -11.066406 17.09375 -9.65625 17.09375 -8.0625 Z M 9.28125 -14.375 C 7.726562 -14.375 6.425781 -13.875 5.375 -12.875 C 4.320312 -11.882812 3.722656 -10.597656 3.578125 -9.015625 L 15.015625 -9.015625 C 14.867188 -10.597656 14.269531 -11.882812 13.21875 -12.875 C 12.164062 -13.875 10.851562 -14.375 9.28125 -14.375 Z M 9.28125 -14.375 "/></g></g></g><g fill="#e43397" fill-opacity="1"><g transform="translate(520.883487, 647.107017)"><g><path d="M 9.71875 0.15625 C 8.125 0.15625 6.695312 -0.191406 5.4375 -0.890625 C 4.175781 -1.585938 3.1875 -2.5625 2.46875 -3.8125 C 1.757812 -5.070312 1.40625 -6.488281 1.40625 -8.0625 C 1.40625 -9.632812 1.757812 -11.039062 2.46875 -12.28125 C 3.1875 -13.53125 4.175781 -14.5 5.4375 -15.1875 C 6.695312 -15.882812 8.125 -16.234375 9.71875 -16.234375 C 11.101562 -16.234375 12.34375 -15.960938 13.4375 -15.421875 C 14.53125 -14.878906 15.394531 -14.085938 16.03125 -13.046875 L 14.40625 -11.953125 C 13.875 -12.742188 13.195312 -13.335938 12.375 -13.734375 C 11.5625 -14.140625 10.675781 -14.34375 9.71875 -14.34375 C 8.550781 -14.34375 7.5 -14.082031 6.5625 -13.5625 C 5.632812 -13.039062 4.910156 -12.296875 4.390625 -11.328125 C 3.867188 -10.367188 3.609375 -9.28125 3.609375 -8.0625 C 3.609375 -6.8125 3.867188 -5.710938 4.390625 -4.765625 C 4.910156 -3.816406 5.632812 -3.082031 6.5625 -2.5625 C 7.5 -2.039062 8.550781 -1.78125 9.71875 -1.78125 C 10.675781 -1.78125 11.5625 -1.972656 12.375 -2.359375 C 13.195312 -2.742188 13.875 -3.335938 14.40625 -4.140625 L 16.03125 -3.03125 C 15.394531 -1.988281 14.523438 -1.195312 13.421875 -0.65625 C 12.316406 -0.113281 11.082031 0.15625 9.71875 0.15625 Z M 9.71875 0.15625 "/></g></g></g><g fill="#e43397" fill-opacity="1"><g transform="translate(538.121879, 647.107017)"><g><path d="M 11.515625 -0.984375 C 11.109375 -0.609375 10.601562 -0.320312 10 -0.125 C 9.394531 0.0625 8.769531 0.15625 8.125 0.15625 C 6.613281 0.15625 5.445312 -0.25 4.625 -1.0625 C 3.8125 -1.882812 3.40625 -3.039062 3.40625 -4.53125 L 3.40625 -14.28125 L 0.515625 -14.28125 L 0.515625 -16.109375 L 3.40625 -16.109375 L 3.40625 -19.640625 L 5.578125 -19.640625 L 5.578125 -16.109375 L 10.484375 -16.109375 L 10.484375 -14.28125 L 5.578125 -14.28125 L 5.578125 -4.65625 C 5.578125 -3.695312 5.816406 -2.96875 6.296875 -2.46875 C 6.773438 -1.96875 7.460938 -1.71875 8.359375 -1.71875 C 8.804688 -1.71875 9.238281 -1.785156 9.65625 -1.921875 C 10.082031 -2.066406 10.445312 -2.273438 10.75 -2.546875 Z M 11.515625 -0.984375 "/></g></g></g></svg>